<svg width="790" height="185" viewBox="0 0 790 185" fill="none" xmlns="http://www.w3.org/2000/svg">
<g clip-path="url(#clip0_3009_2416)">
<path d="M783.688 156.204C782.332 155.307 780.52 155.755 779.73 157.212C771.691 171.78 757.994 176.934 745.769 176.934C718.147 176.934 703.431 149.817 701.846 117.769C701.733 116.088 701.733 114.407 701.733 112.726V112.614H780.977C782.108 112.614 783.014 111.718 783.014 110.597C783.579 92.2202 775.199 57.1472 734.221 57.1472C698.45 57.1472 667.773 83.4802 667.773 120.346C667.773 157.884 699.582 184.329 732.411 184.329C753.013 184.329 775.091 174.02 785.159 157.1L783.688 156.204ZM727.996 60.2847C744.183 63.8705 749.617 91.324 748.825 109.589H701.733C702.299 80.5669 713.392 60.2847 727.996 60.2847Z" fill="#FFE9DC"/>
<path d="M526.167 157.212C518.13 171.78 504.433 176.934 492.207 176.934C464.586 176.934 449.87 149.817 448.285 117.769C448.172 116.088 448.172 114.407 448.172 112.726V112.614H527.412C528.545 112.614 529.45 111.718 529.45 110.597C530.016 92.2202 521.639 57.1472 480.661 57.1472C444.889 57.1472 414.212 83.4802 414.212 120.346C414.212 157.884 446.021 184.329 478.849 184.329C499.452 184.329 521.526 174.02 531.601 157.1L530.356 156.204C528.884 155.307 526.959 155.755 526.167 157.212ZM474.434 60.2847C490.622 63.8705 496.056 91.324 495.263 109.589H448.172C448.851 80.5669 459.945 60.2847 474.434 60.2847Z" fill="#FFE9DC"/>
<path d="M276.206 0.335938V149.705C276.206 168.866 291.828 184.33 311.186 184.33V34.9608C311.186 15.9115 295.564 0.335938 276.206 0.335938Z" fill="#FFE9DC"/>
<path d="M332.58 55.1294C330.769 55.1294 329.298 56.4741 329.298 58.267C329.071 58.267 329.184 58.267 329.298 58.267C350.806 63.5335 363.144 93.3403 360.427 130.318C358.39 158.219 349.107 178.614 329.298 181.191C329.298 182.984 330.769 184.441 332.694 184.328C340.731 183.993 348.655 182.199 356.013 179.062C387.143 165.727 405.821 128.75 390.426 93.788C379.445 68.9121 356.239 55.9138 332.58 55.1294Z" fill="#FFE9DC"/>
<path d="M0 0.335938V149.705C0 168.866 15.6218 184.33 34.9791 184.33V34.9608C34.9791 15.9115 19.3574 0.335938 0 0.335938Z" fill="#FFE9DC"/>
<path d="M56.3738 55.1294C54.5625 55.1294 53.0909 56.4741 53.0909 58.267C52.8645 58.267 52.9777 58.267 53.0909 58.267C74.5991 63.5335 86.938 93.3403 84.221 130.318C82.1833 158.219 72.9011 178.614 53.0909 181.191C53.0909 182.984 54.5625 184.441 56.4869 184.328C64.5242 183.993 72.4483 182.199 79.8063 179.062C110.937 165.727 129.615 128.75 114.219 93.788C103.239 68.9121 80.0325 55.9138 56.3738 55.1294Z" fill="#FFE9DC"/>
<path d="M249.84 157.212C241.803 171.78 228.106 176.934 215.879 176.934C188.259 176.934 173.542 149.817 171.957 117.769C171.844 116.088 171.844 114.407 171.844 112.726V112.614H251.085C252.217 112.614 253.123 111.718 253.123 110.597C253.688 92.2202 245.312 57.1472 204.333 57.1472C168.561 57.1472 137.884 83.4802 137.884 120.346C137.884 157.884 169.694 184.329 202.522 184.329C223.125 184.329 245.198 174.02 255.274 157.1L254.028 156.204C252.444 155.307 250.632 155.755 249.84 157.212ZM198.107 60.2847C214.294 63.8705 219.728 91.324 218.936 109.589H171.844C172.411 80.5669 183.504 60.2847 198.107 60.2847Z" fill="#FFE9DC"/>
<path d="M655.55 157.55C647.513 172.006 633.816 177.048 621.476 177.048C592.497 177.048 577.554 147.018 577.554 110.712C577.554 87.9645 583.441 69.9238 596.006 63.2005C596.006 60.9594 593.855 59.2785 591.592 59.8388C564.083 67.1224 543.594 90.3174 543.594 120.46C543.594 157.55 575.063 184.331 608.232 184.331C628.835 184.331 650.909 174.023 660.984 157.103L660.078 156.43C658.493 155.421 656.455 155.87 655.55 157.55Z" fill="#FFE9DC"/>
<path d="M608.79 61.5173C619.317 68.2406 634.712 83.3683 644.448 93.9015L653.844 67.2321C643.429 61.8535 626.222 57.1472 610.94 57.1472H610.035C608.676 57.1472 607.657 58.2677 607.657 59.5003C607.657 60.3968 608.11 61.0691 608.79 61.5173Z" fill="#FFE9DC"/>
<path d="M726.307 18.0416L759.022 39.8923L760.38 38.8838L726.986 0.785156H725.627L692.234 38.8838L693.591 39.8923L726.307 18.0416Z" fill="#FFE9DC"/>
</g>
<defs>
<clipPath id="clip0_3009_2416">
<rect width="790" height="184" fill="white" transform="translate(0 0.335938)"/>
</clipPath>
</defs>
</svg>
